# xmcd CD database file
#
# Track frame offsets:
#	150
#	12452
#	25447
#	39266
#	49912
#	61706
#	72852
#	84519
#	96184
#	108853
#	122840
#	136680
#	147728
#	159495
#	175958
#	189055
#	202051
#	212665
#	224010
#	236563
#	251017
#	263795
#
# Disc length: 3694 seconds
#
# Revision: 0
# Processed by: cddbd v1.5.1PL0 Copyright (c) Steve Scherf et al.
# Submitted via: CDex 1.51
#
DISCID=400e6c16
DTITLE=B.B. King - The Birth of a King
DYEAR=2004
DGENRE=Blues
TTITLE0=Miss Martha King
TTITLE1=Boogie Woogie Woman
TTITLE2=You Know I Love You
TTITLE3=Don't You Want a Man Like Me
TTITLE4=Take a Swing with Me
TTITLE5=B.B. Blues
TTITLE6=You Didn't Want Me
TTITLE7=She's a Mean Woman
TTITLE8=Hard Workin' Woman
TTITLE9=Blind Love
TTITLE10=Three O'Clock Blues
TTITLE11=Gotta Find My Baby
TTITLE12=Shake It Up and Go
TTITLE13=The Other Night Blues
TTITLE14=Please Love Me
TTITLE15=Someday, Somewhere
TTITLE16=Fine Looking Woman
TTITLE17=She's Dynamite
TTITLE18=Highway Bound
TTITLE19=Why Did You Leave Me?
TTITLE20=Mistreated Woman
TTITLE21=Woke Up This Morning
EXTD=YEAR: 2004
EXTT0=
EXTT1=
EXTT2=
EXTT3=
EXTT4=
EXTT5=
EXTT6=
EXTT7=
EXTT8=
EXTT9=
EXTT10=
EXTT11=
EXTT12=
EXTT13=
EXTT14=
EXTT15=
EXTT16=
EXTT17=
EXTT18=
EXTT19=
EXTT20=
EXTT21=
PLAYORDER=
